<svg xmlns="http://www.w3.org/2000/svg" width="22" height="22" viewBox="0 0 22 22">
  <g id="Chat" fill="none" stroke-miterlimit="10">
    <path d="M20.64,16.295a11.007,11.007,0,1,0-3.43,3.782c3.111,2.471,4.791,1.8,4.791,1.8-1.848-2.514-2.235-3.685-1.36-5.586Z" stroke="none"/>
    <path d="M 11 20.00000381469727 C 12.81964015960693 20.00000381469727 14.5761604309082 19.45591354370117 16.07963943481445 18.42655372619629 L 17.29763984680176 17.59265327453613 L 18.19943046569824 18.30898094177246 C 18.15909385681152 17.44194984436035 18.33963012695313 16.50903511047363 18.82267951965332 15.45888328552246 L 18.8528995513916 15.39316272735596 L 18.8878002166748 15.32980346679688 C 19.61540985107422 14.00870323181152 20 12.51148319244385 20 11.00000286102295 C 20 6.037383079528809 15.96261978149414 2.000003099441528 11 2.000003099441528 C 6.037380218505859 2.000003099441528 2 6.037383079528809 2 11.00000286102295 C 2 15.96262359619141 6.037380218505859 20.00000381469727 11 20.00000381469727 M 11 22.00000381469727 C 4.924330234527588 22.00000381469727 -1.77635683940025e-15 17.07383346557617 -1.77635683940025e-15 11.00000286102295 C -1.77635683940025e-15 4.924333095550537 4.924330234527588 3.137512294415501e-06 11 3.137512294415501e-06 C 17.07382965087891 3.137512294415501e-06 22 4.924333095550537 22 11.00000286102295 C 22 12.91766357421875 21.5049991607666 14.72350311279297 20.63966941833496 16.29466247558594 C 19.76516914367676 18.19583320617676 20.15200042724609 19.36733245849609 22 21.88083267211914 C 21.99999809265137 21.88083076477051 20.32066535949707 22.54816055297852 17.20949935913086 20.07683372497559 C 15.44217014312744 21.28683280944824 13.30449962615967 22.00000381469727 11 22.00000381469727 Z" stroke="none" fill="#4a4a4a"/>
  </g>
</svg>
